# xmcd
#
# Track frame offsets:
#	150
#	18535
#	36760
#	50092
#	75732
#	88070
#	112102
#	130075
#	144272
#	163630
#	179287
#	198480
#	215350
#	236035
#	260685
#
# Disc length: 3653 seconds
#
# Revision: 0
# Processed by: cddbd v1.4PL0 Copyright (c) Steve Scherf et al.
# Submitted via: EasyCDDAExtractor 4.6.9.1
#
DISCID=d60e430f
DTITLE=Berline Crary Hickman - Chambergrass
DYEAR=2002
DGENRE=Bluegrass
TTITLE0=Forked Deer
TTITLE1=Big Dog
TTITLE2=Fall Creek
TTITLE3=Bonaparte's Retreat
TTITLE4=Pistol Pete
TTITLE5=Fisher's Hornpipe
TTITLE6=Night Run
TTITLE7=Turkey In The Straw
TTITLE8=Under The Double Eagle
TTITLE9=Henry's Hornpipe
TTITLE10=Early Times
TTITLE11=Storm Over Oklahoma
TTITLE12=Dusty Miller
TTITLE13=Old Time Medley
TTITLE14=Cricket
EXTD=
EXTT0=
EXTT1=
EXTT2=
EXTT3=
EXTT4=
EXTT5=
EXTT6=
EXTT7=
EXTT8=
EXTT9=
EXTT10=
EXTT11=
EXTT12=
EXTT13=
EXTT14=
PLAYORDER=
